<?xml version="1.0" encoding="UTF-8" standalone="no"?>
<!-- Created with Inkscape (http://www.inkscape.org/) -->

<svg
   xmlns:dc="http://purl.org/dc/elements/1.1/"
   xmlns:cc="http://creativecommons.org/ns#"
   xmlns:rdf="http://www.w3.org/1999/02/22-rdf-syntax-ns#"
   xmlns:svg="http://www.w3.org/2000/svg"
   xmlns="http://www.w3.org/2000/svg"
   xmlns:sodipodi="http://sodipodi.sourceforge.net/DTD/sodipodi-0.dtd"
   xmlns:inkscape="http://www.inkscape.org/namespaces/inkscape"
   width="50.116196mm"
   height="25.59411mm"
   viewBox="0 0 50.116196 25.59411"
   version="1.1"
   id="svg5023"
   inkscape:version="0.92.3 (d244b95, 2018-08-02)"
   sodipodi:docname="menu1.svg">
  <defs
     id="defs5017" />
  <sodipodi:namedview
     id="base"
     pagecolor="#ffffff"
     bordercolor="#666666"
     borderopacity="1.0"
     inkscape:pageopacity="0.0"
     inkscape:pageshadow="2"
     inkscape:zoom="0.35"
     inkscape:cx="88.993484"
     inkscape:cy="-97.347457"
     inkscape:document-units="mm"
     inkscape:current-layer="layer1"
     showgrid="false"
     fit-margin-top="0"
     fit-margin-left="0"
     fit-margin-right="0"
     fit-margin-bottom="0"
     inkscape:window-width="1299"
     inkscape:window-height="704"
     inkscape:window-x="67"
     inkscape:window-y="27"
     inkscape:window-maximized="1"
     inkscape:pagecheckerboard="true"
     borderlayer="true"
     showguides="true"
     inkscape:guide-bbox="true">
    <sodipodi:guide
       position="12.695303,0.13363477"
       orientation="0,1"
       id="guide5092"
       inkscape:locked="false" />
  </sodipodi:namedview>
  <metadata
     id="metadata5020">
    <rdf:RDF>
      <cc:Work
         rdf:about="">
        <dc:format>image/svg+xml</dc:format>
        <dc:type
           rdf:resource="http://purl.org/dc/dcmitype/StillImage" />
        <dc:title></dc:title>
      </cc:Work>
    </rdf:RDF>
  </metadata>
  <g
     inkscape:label="Layer 1"
     inkscape:groupmode="layer"
     id="layer1"
     transform="translate(-82.287141,-97.482708)">
    <path
       id="path5096"
       transform="matrix(0.26458333,0,0,0.26458333,82.287141,97.482708)"
       style="fill:none;fill-opacity:1;stroke:#000000;stroke-width:9.44881916;stroke-miterlimit:4;stroke-dasharray:none;stroke-opacity:1"
       d="M 94.707031,38.287109 C 86.214962,48.360684 76.83047,53.07794 64.052734,85.830078 c -0.932598,3.466432 -1.86431,6.932006 -2.796875,10.398438 h 33.451172 33.453129 c -0.93256,-3.466432 -1.86428,-6.932006 -2.79688,-10.398438 -1.32729,-3.402146 -2.61028,-6.436912 -3.86719,-9.271484 -0.1878,0.03887 -0.40606,0.085 -0.60547,0.126953 -0.0996,0.04622 -0.22673,0.09286 -0.31835,0.138672 -0.44841,0.224126 -0.69356,0.95318 -1.19336,0.914062 -0.12326,-0.0097 -0.19546,-0.02442 -0.3086,-0.03516 -0.12342,0.331483 -0.23867,0.62002 -0.31054,0.486328 -0.0971,-0.180584 -0.19899,-0.371388 -0.30469,-0.556641 -0.44984,-0.0613 -0.82058,-0.131487 -1.07617,-0.214843 -5.20828,1.005311 -7.63053,1.168426 -15.59571,2.134765 -1.878155,0.251717 -3.756603,0.502077 -5.634762,0.753907 -0.150048,0.03401 -0.513421,0.248776 -0.451172,0.107421 0.201519,-0.457143 0.393811,-0.939692 0.611328,-1.402343 -0.411409,-0.329392 -0.798192,-0.697987 -1.166016,-1.058594 -0.163275,-0.159874 0.446552,-0.09811 0.669922,-0.146484 0.472672,-0.06337 0.945293,-0.126086 1.417969,-0.189453 0.05921,-0.05825 0.11528,-0.11836 0.179687,-0.171876 0.33411,-0.277794 3.077174,-0.429456 3.761724,-1.076171 0.12584,-0.118678 -0.32446,-0.122744 -0.48633,-0.183594 -0.10545,-0.215055 -0.3149,-0.405023 -0.31641,-0.644531 -0.008,-1.42303 0.56725,-3.318059 1.36133,-4.458985 1.62754,-2.338393 4.34459,-4.5542 6.72656,-5.978515 1.78931,-1.069947 3.73657,-1.847541 5.60547,-2.771485 0.0694,-0.0199 0.13775,-0.04418 0.20703,-0.06445 C 106.78846,49.596273 100.53708,45.202911 94.707031,38.287109 Z m 20.820309,26.207032 c -0.11757,0.03421 -0.23372,0.07432 -0.35156,0.107421 -4.42741,2.152479 -5.3584,2.226739 -8.91406,5.222657 -2.0569,1.733064 -2.19577,2.028051 -3.11914,4.171875 -0.13077,0.303874 -0.32113,0.606715 -0.32227,0.9375 -0.002,0.635187 0.20894,1.254213 0.3125,1.880859 -0.007,0.01292 -0.0108,0.02799 -0.0176,0.04102 7.17419,-0.847459 9.81855,-1.111562 15.83985,-2.341797 0.0275,-0.02315 0.0523,-0.04938 0.0801,-0.07227 0.23848,-0.196535 0.51573,-0.346561 0.74609,-0.552734 0.12299,-0.109895 0.23344,-0.232572 0.34375,-0.355469 -1.58506,-3.401809 -3.11504,-6.389069 -4.59766,-9.039062 z" />
    <circle
       style="fill:none;fill-opacity:1;stroke:#000000;stroke-width:9.44881916;stroke-miterlimit:4;stroke-dasharray:none;stroke-opacity:1"
       id="path5098"
       cx="107.34524"
       cy="106.34955"
       r="6.8153729" />
    <path
       style="fill:#ff0000;fill-opacity:1;fill-rule:nonzero;stroke:none"
       id="path5704"
       d="m 120.14744,115.72051 c -0.0958,0.0854 -0.18015,0.18568 -0.28743,0.2561 -0.78216,0.51344 -1.37057,0.71494 -2.33171,1.00052 -0.78382,0.2329 -1.57736,0.43453 -2.37596,0.61021 -2.92397,0.64321 -3.09071,0.59838 -5.93524,0.94348 -0.49693,0.0666 -0.99385,0.13327 -1.49078,0.1999 -0.0397,0.009 -0.13567,0.0656 -0.1192,0.0282 0.12194,-0.27662 0.22059,-0.59242 0.45311,-0.78562 0.0884,-0.0735 0.81407,-0.11345 0.99519,-0.28456 0.0333,-0.0314 -0.0857,-0.0323 -0.12853,-0.0484 -0.0279,-0.0569 -0.0832,-0.10741 -0.0836,-0.17078 -0.002,-0.37651 0.14978,-0.87792 0.35988,-1.17979 0.43062,-0.6187 1.14944,-1.20482 1.77967,-1.58167 0.47342,-0.28309 0.98896,-0.48891 1.48344,-0.73337 0.6375,-0.18288 1.26033,-0.42815 1.9125,-0.54865 0.68163,-0.12594 1.37809,-0.17034 2.07105,-0.18735 1.42773,-0.035 2.59457,0.091 3.96307,0.50359 1.22619,0.36969 1.90311,0.78421 2.99411,1.3595 0.22069,0.12168 0.44138,0.24337 0.66208,0.36505 0.0163,0.008 0.0602,0.009 0.0489,0.0232 -0.18601,0.22867 -0.33285,0.52246 -0.5978,0.65166 -0.22237,0.10843 -0.49489,-0.005 -0.74218,0.002 -0.68922,0.0198 -2.65707,0.12338 -3.22117,0.15176 -1.59931,0.14719 -1.60029,0.11774 -3.0285,0.3432 -0.24185,0.0382 -0.48429,0.0759 -0.72234,0.13322 -0.12655,0.044 -0.2531,0.0879 -0.37965,0.13188 -0.0251,0.0226 -0.0449,0.0531 -0.0753,0.0679 -0.0952,0.0463 -0.19793,0.0755 -0.29689,0.11321 -0.21628,0.11195 -0.16113,0.0787 -0.36419,0.20185 -0.0461,0.028 -0.0973,0.0494 -0.1374,0.0854 -0.0316,0.0284 -0.0425,0.0751 -0.0737,0.10391 -0.0901,0.0834 -0.1935,0.15109 -0.2873,0.23022 -0.086,0.0725 -0.16793,0.14973 -0.25189,0.22459 -0.0411,-0.38132 -0.1784,0.33728 -0.23092,0.23959 -0.10925,-0.20323 -0.26518,-0.41696 -0.24625,-0.64692 0.011,-0.13376 0.20007,-0.18391 0.31965,-0.24486 0.6137,-0.31281 1.06796,-0.44286 1.69976,-0.65386 0.62739,-0.20954 0.83885,0.42574 0.21102,0.63397 v 0 c -0.42695,0.14161 -1.11271,0.35446 -1.50446,0.55032 -0.11864,0.0593 -0.18366,0.25233 -0.3159,0.24198 -1.08326,-0.0849 -0.6647,-0.32804 -0.37651,-0.61988 0.0953,-0.0843 0.18772,-0.17182 0.28581,-0.25277 0.0631,-0.052 0.13626,-0.0913 0.19721,-0.14585 0.0789,-0.0705 0.14086,-0.1588 0.2209,-0.22804 0.0447,-0.0387 0.10009,-0.0632 0.15084,-0.0936 0.26393,-0.15819 0.1887,-0.11289 0.49149,-0.25984 0.34454,-0.0777 -0.17557,0.0545 0.37017,-0.1804 0.15236,-0.0656 0.31127,-0.11723 0.47255,-0.15599 0.24684,-0.0593 0.49828,-0.0981 0.74906,-0.13758 1.45718,-0.22918 1.46342,-0.19993 3.08915,-0.34903 0.63024,-0.0317 2.51721,-0.13142 3.25334,-0.15261 0.23954,-0.007 0.51222,-0.12257 0.7189,-0.001 0.2014,0.11816 0.23807,0.40315 0.33107,0.61733 0.0118,0.0273 -0.0534,-0.0262 -0.0801,-0.0393 -0.21727,-0.11983 -0.43454,-0.23967 -0.65181,-0.3595 -1.0174,-0.53981 -1.68579,-0.94794 -2.82392,-1.29728 -1.31305,-0.40303 -2.3892,-0.51764 -3.76258,-0.49083 -0.65113,0.0127 -1.30574,0.0498 -1.94681,0.16448 -0.61377,0.10978 -1.20055,0.33721 -1.80082,0.50581 -1.17142,0.56951 -1.41743,0.58922 -2.3582,1.38189 -0.54422,0.45854 -0.5811,0.53631 -0.82541,1.10353 -0.0346,0.0804 -0.0848,0.16087 -0.0851,0.24839 -6.1e-4,0.16806 0.055,0.33159 0.0824,0.49739 -0.0898,0.16761 -0.13249,0.37093 -0.26947,0.50282 -0.1255,0.12083 -1.05359,0.32861 -1.09912,0.3168 -0.29295,-0.076 -0.52931,-0.30648 -0.74542,-0.51835 -0.0432,-0.0423 0.1182,-0.0258 0.1773,-0.0386 0.49976,-0.067 0.99953,-0.134 1.49929,-0.201 2.81806,-0.34023 2.94747,-0.29171 5.84968,-0.92741 0.77902,-0.17063 1.55259,-0.3684 2.31796,-0.5925 0.71691,-0.20991 1.47518,-0.45351 2.11164,-0.87036 0.11701,-0.0766 0.20929,-0.18564 0.31393,-0.27845 0.49485,-0.43892 0.91127,0.0817 0.41741,0.52175 z"
       inkscape:connector-curvature="0" />
    <path
       style="fill:#ff0000;fill-opacity:1;fill-rule:nonzero;stroke:none;stroke-width:3.77952766"
       d="M 131.09961 59.529297 C 130.45249 59.525889 129.79366 59.534246 129.11914 59.550781 C 126.50008 59.615071 123.86725 59.781819 121.29102 60.257812 C 118.82612 60.713246 116.47195 61.640831 114.0625 62.332031 C 112.1936 63.255975 110.24634 64.033569 108.45703 65.103516 C 106.07506 66.527831 103.35801 68.743638 101.73047 71.082031 C 100.93639 72.222957 100.36158 74.117986 100.36914 75.541016 C 100.37065 75.780524 100.5801 75.970492 100.68555 76.185547 C 100.84742 76.246397 101.29773 76.250463 101.17188 76.369141 C 100.48733 77.015856 97.744266 77.167517 97.410156 77.445312 C 97.345749 77.498828 97.289675 77.558935 97.230469 77.617188 C 96.757793 77.680556 96.285172 77.743272 95.8125 77.806641 C 95.58913 77.855019 94.979303 77.793251 95.142578 77.953125 C 95.510402 78.313732 95.897185 78.682327 96.308594 79.011719 C 96.091077 79.47437 95.898785 79.956918 95.697266 80.414062 C 95.635017 80.555417 95.99839 80.340656 96.148438 80.306641 C 98.026598 80.054811 99.905042 79.804451 101.7832 79.552734 C 109.74838 78.586395 112.17063 78.42328 117.37891 77.417969 C 117.6345 77.501325 118.00524 77.571513 118.45508 77.632812 C 118.56078 77.818065 118.66269 78.008869 118.75977 78.189453 C 118.83164 78.323145 118.94689 78.034608 119.07031 77.703125 C 119.18345 77.713858 119.25565 77.728621 119.37891 77.738281 C 119.87871 77.777399 120.12386 77.048345 120.57227 76.824219 C 120.66389 76.77841 120.79098 76.731768 120.89062 76.685547 C 121.98554 76.455161 122.83499 76.289865 124.21484 75.986328 C 127.23317 75.322341 130.23284 74.559939 133.19531 73.679688 C 135.8824 72.881283 137.79853 72.253711 139.81055 71.197266 C 140.25702 71.157512 140.32895 71.152512 140.86133 71.103516 C 142.99336 70.996253 150.43218 70.604132 153.03711 70.529297 C 153.97175 70.50284 155.00134 70.931299 155.8418 70.521484 C 156.08242 70.404145 156.29486 70.249397 156.49219 70.072266 C 156.56054 70.109962 156.62892 70.147851 156.69727 70.185547 C 156.79818 70.235059 157.0446 70.437165 157 70.333984 C 156.92172 70.153711 156.85545 69.950805 156.78906 69.753906 C 157.26301 69.231171 157.65871 68.603015 158.10156 68.058594 C 158.14427 68.004924 157.97762 68.000939 157.91602 67.970703 C 157.08187 67.51081 156.24817 67.05169 155.41406 66.591797 C 151.2906 64.417472 148.73208 62.850379 144.09766 61.453125 C 139.57191 60.088654 135.62944 59.553149 131.09961 59.529297 z M 131.23633 62.056641 C 135.56007 62.092496 139.21818 62.590973 143.56055 63.923828 C 147.25873 65.058958 149.68648 66.378924 152.72656 68.017578 C 150.50944 68.087434 146.58358 68.283815 143.53711 68.439453 C 144.64071 66.919223 143.2029 65.464366 141.51562 66.960938 C 141.12014 67.311715 140.77232 67.72416 140.33008 68.013672 C 139.9395 68.26948 139.5333 68.501069 139.12109 68.724609 C 135.02429 69.083349 133.83493 69.149185 129.05859 69.900391 C 128.11076 70.049606 127.16145 70.195796 126.22852 70.419922 C 125.61895 70.566416 125.01726 70.761829 124.44141 71.009766 C 122.37877 71.897577 124.34517 71.397737 123.04297 71.691406 C 121.89857 72.246808 122.18308 72.075945 121.18555 72.673828 C 120.99374 72.788726 120.78418 72.881076 120.61523 73.027344 C 120.31272 73.289038 120.07945 73.622215 119.78125 73.888672 C 119.55089 74.094845 119.27364 74.244871 119.03516 74.441406 C 119.00742 74.464294 118.98259 74.490521 118.95508 74.513672 C 112.93378 75.743907 110.28942 76.00801 103.11523 76.855469 C 103.12201 76.84244 103.12589 76.827373 103.13281 76.814453 C 103.02925 76.187807 102.81801 75.568781 102.82031 74.933594 C 102.82145 74.602809 103.01181 74.299968 103.14258 73.996094 C 104.06595 71.85227 104.20482 71.557283 106.26172 69.824219 C 109.81738 66.828301 110.74837 66.754041 115.17578 64.601562 C 117.44452 63.964334 119.66071 63.10437 121.98047 62.689453 C 124.40341 62.256017 126.87888 62.116359 129.33984 62.068359 C 129.98868 62.055693 130.61865 62.051518 131.23633 62.056641 z "
       transform="matrix(0.26458333,0,0,0.26458333,82.287141,97.482708)"
       id="path5711" />
  </g>
</svg>
